<?xml version="1.0" encoding="UTF-8"?>
<svg width="16px" height="16px" viewBox="0 0 16 16" version="1.1" xmlns="http://www.w3.org/2000/svg" xmlns:xlink="http://www.w3.org/1999/xlink">
	<path d="M1,0 L15,0 C15.5522847,-1.01453063e-16 16,0.44771525 16,1 L16,15 C16,15.5522847 15.5522847,16 15,16 L1,16 C0.44771525,16 6.76353751e-17,15.5522847 0,15 L0,1 L0,1 C-6.76353751e-17,0.44771525 0.44771525,1.01453063e-16 1,0 L1,0 Z M8.40496184,2.18171936 L9.36207523,5.31015745 L12.4815559,5.31015745 C12.5458065,5.12338503 12.7540673,4.95528983 12.9379572,4.8945888 C12.9401727,4.8945888 13.0066389,4.87124225 13.0221477,4.86657295 L11.9830593,1.5 L8.64202466,1.5 L8.64202466,1.5980555 C8.64202466,1.79883589 8.55340306,2.06031726 8.40496184,2.18171936 Z M13.4320226,6.19499181 C13.425376,6.19732645 13.3478321,6.22300765 13.3456166,6.2253423 C13.1639423,6.28837802 12.900293,6.27903938 12.7452052,6.16697591 L10.3369129,7.99267635 L10.1951183,8.10240518 L11.1876804,11.2028274 C11.3760013,11.2074967 11.5931242,11.361584 11.7083323,11.5250098 C11.7105479,11.5273445 11.7459965,11.5787069 11.7570742,11.5950495 L14.4578178,9.52654488 L13.4320226,6.19499181 Z M3.01898355,4.8945888 C3.20065783,4.95762447 3.41113419,5.12571968 3.47538482,5.31015745 L6.59486547,5.31015745 L7.55197886,2.18171936 C7.40353764,2.06031726 7.31491604,1.79883589 7.31491604,1.5980555 L7.31491604,1.5 L3.97388141,1.5 L2.93479301,4.86657295 C2.94808628,4.87124225 3.01676802,4.8945888 3.01898355,4.8945888 Z M4.24860836,11.5857109 C4.35938537,11.422285 4.57650832,11.2635285 4.76261371,11.2565245 L5.71308046,8.12575173 L5.72858927,8.07672398 L3.21173553,6.16931061 C3.05664772,6.28137403 2.79299842,6.28837802 2.61132415,6.22767699 C2.60910861,6.22767699 2.52934918,6.1996611 2.52491807,6.19732645 L1.49690741,9.52887958 L4.22645296,11.618396 C4.23753066,11.6020535 4.24860836,11.5880455 4.24860836,11.5857109 Z M10.6404419,12.3561471 C10.5274494,12.1950559 10.4499055,11.9289052 10.5008629,11.7374635 L7.96406933,9.82304613 L5.45607781,11.7794873 C5.50925078,11.9685943 5.43613794,12.234745 5.32536093,12.4005056 C5.32536093,12.4005056 5.31206769,12.4191828 5.29877446,12.4378601 L7.97514703,14.4876874 L10.6847527,12.4168482 C10.6670284,12.3935016 10.6426575,12.3561471 10.6404419,12.3561471 Z" id="Combined-Shape" fill="#000000"></path>
</svg>